<svg xmlns="http://www.w3.org/2000/svg" version="1.1" xmlns:xlink="http://www.w3.org/1999/xlink" xmlns:svgjs="http://svgjs.com/svgjs" width="2240" height="1060" preserveAspectRatio="none" viewBox="0 0 1240 960"><g mask="url(&quot;#SvgjsMask1159&quot;)" fill="none"><rect width="1240" height="960" x="0" y="0" fill="url(#SvgjsLinearGradient1160)"></rect><path d="M 0,550 C 41.4,529.4 124.2,434.8 207,447 C 289.8,459.2 331.2,693.6 414,611 C 496.8,528.4 538.2,27.6 621,34 C 703.8,40.4 745.2,585.2 828,643 C 910.8,700.8 952.6,325.4 1035,323 C 1117.4,320.6 1199,569.4 1240,631L1240 960L0 960z" fill="#184a7e"></path><path d="M 0,232 C 82.8,318 248.4,629.2 414,662 C 579.6,694.8 662.8,431 828,396 C 993.2,361 1157.6,468.8 1240,487L1240 960L0 960z" fill="#2264ab"></path></g><defs><mask id="SvgjsMask1159"><rect width="1240" height="960" fill="#ffffff"></rect></mask><linearGradient x1="0%" y1="50%" x2="100%" y2="50%" gradientUnits="userSpaceOnUse" id="SvgjsLinearGradient1160"><stop stop-color="#0e2a47" offset="0"></stop><stop stop-color="rgba(0, 38, 87, 1)" offset="0.33"></stop><stop stop-color="rgba(0, 38, 87, 1)" offset="0.61"></stop><stop stop-color="rgba(0, 38, 87, 1)" offset="0.79"></stop><stop stop-color="rgba(0, 38, 87, 1)" offset="1"></stop></linearGradient></defs></svg>